<?xml version="1.0" encoding="utf-8"?>
<!-- Generator: Adobe Illustrator 15.0.0, SVG Export Plug-In  -->
<!DOCTYPE svg PUBLIC "-//W3C//DTD SVG 1.1//EN" "http://www.w3.org/Graphics/SVG/1.1/DTD/svg11.dtd" [
	<!ENTITY ns_flows "http://ns.adobe.com/Flows/1.0/">
]>
<svg version="1.1"
	 xmlns="http://www.w3.org/2000/svg" xmlns:xlink="http://www.w3.org/1999/xlink" xmlns:a="http://ns.adobe.com/AdobeSVGViewerExtensions/3.0/"
	 x="0px" y="0px" width="418px" height="464px" viewBox="0 0 418 464" enable-background="new 0 0 418 464" xml:space="preserve">
<defs>
</defs>
<polygon fill="none" stroke="#FFFFFF" stroke-width="2" stroke-miterlimit="10" points="171.999,9 411.999,268.667 354.999,381.333 
	101.999,455 6,286 "/>
<g>
	<defs>
		<rect id="SVGID_1_" width="417.999" height="464"/>
	</defs>
	<clipPath id="SVGID_2_">
		<use xlink:href="#SVGID_1_"  overflow="visible"/>
	</clipPath>
	<path clip-path="url(#SVGID_2_)" fill="#FFFFFF" d="M360.999,381.097c0,3.313-2.688,6-6,6c-3.313,0-6-2.687-6-6
		c0-3.313,2.687-6,6-6C358.312,375.097,360.999,377.784,360.999,381.097"/>
	<path clip-path="url(#SVGID_2_)" fill="#FFFFFF" d="M417.999,267.883c0,3.313-2.688,6-6,6c-3.313,0-6-2.688-6-6
		c0-3.313,2.687-6,6-6C415.312,261.883,417.999,264.569,417.999,267.883"/>
	<path clip-path="url(#SVGID_2_)" fill="#FFFFFF" d="M12,286c0,3.313-2.687,6-6,6s-6-2.687-6-6c0-3.313,2.687-6,6-6
		S12,282.688,12,286"/>
	<path clip-path="url(#SVGID_2_)" fill="#FFFFFF" d="M110.749,455c0,4.971-4.029,9-9,9s-9-4.029-9-9s4.029-9,9-9
		S110.749,450.029,110.749,455"/>
	<path clip-path="url(#SVGID_2_)" fill="#FFFFFF" d="M181.749,9c0,4.971-4.029,9-9,9s-9-4.029-9-9s4.029-9,9-9
		S181.749,4.029,181.749,9"/>
	<polygon clip-path="url(#SVGID_2_)" fill="none" stroke="#FFFFFF" stroke-width="2" stroke-miterlimit="10" points="171.999,9 
		411.999,268.667 354.999,381.333 101.999,455 6,286 	"/>
	<path clip-path="url(#SVGID_2_)" fill="#FFFFFF" d="M360.999,381.097c0,3.313-2.688,6-6,6c-3.313,0-6-2.687-6-6
		c0-3.313,2.687-6,6-6C358.312,375.097,360.999,377.784,360.999,381.097"/>
	<path clip-path="url(#SVGID_2_)" fill="#FFFFFF" d="M417.999,267.883c0,3.313-2.688,6-6,6c-3.313,0-6-2.688-6-6
		c0-3.313,2.687-6,6-6C415.312,261.883,417.999,264.569,417.999,267.883"/>
	<path clip-path="url(#SVGID_2_)" fill="#FFFFFF" d="M12,286c0,3.313-2.687,6-6,6s-6-2.687-6-6c0-3.313,2.687-6,6-6
		S12,282.688,12,286"/>
	<path clip-path="url(#SVGID_2_)" fill="#FFFFFF" d="M110.749,455c0,4.971-4.029,9-9,9s-9-4.029-9-9s4.029-9,9-9
		S110.749,450.029,110.749,455"/>
	<path clip-path="url(#SVGID_2_)" fill="#FFFFFF" d="M181.749,9c0,4.971-4.029,9-9,9s-9-4.029-9-9s4.029-9,9-9
		S181.749,4.029,181.749,9"/>
</g>
</svg>
