<?xml version="1.0" encoding="utf-8"?>
<!-- Generator: Adobe Illustrator 16.0.0, SVG Export Plug-In . SVG Version: 6.00 Build 0)  -->
<!DOCTYPE svg PUBLIC "-//W3C//DTD SVG 1.1//EN" "http://www.w3.org/Graphics/SVG/1.1/DTD/svg11.dtd">
<svg version="1.1" id="Layer_1" xmlns="http://www.w3.org/2000/svg" xmlns:xlink="http://www.w3.org/1999/xlink" x="0px" y="0px"
	 width="36px" height="36px" viewBox="0 0 36 36" enable-background="new 0 0 36 36" xml:space="preserve">
<path fill="#C5B690" d="M18,4c7.72,0,14,6.28,14,14s-6.28,14-14,14S4,25.72,4,18S10.28,4,18,4 M18,3C9.715,3,3,9.716,3,18
	s6.715,15,15,15c8.284,0,15-6.716,15-15S26.284,3,18,3L18,3z"/>
<polygon fill="#C5B690" points="13.996,4 17.999,-0.003 22.003,4 "/>
<polygon fill="#C5B690" points="32,13.996 36.004,17.999 32,22.003 "/>
<polygon fill="#C5B690" points="22.004,32 18.001,36.004 13.997,32 "/>
<polygon fill="#C5B690" points="4,22.004 -0.004,18.001 4,13.997 "/>
</svg>
