<?xml version="1.0" encoding="utf-8"?>
<!-- Generator: Adobe Illustrator 16.0.0, SVG Export Plug-In . SVG Version: 6.00 Build 0)  -->
<!DOCTYPE svg PUBLIC "-//W3C//DTD SVG 1.1//EN" "http://www.w3.org/Graphics/SVG/1.1/DTD/svg11.dtd">
<svg version="1.1" id="Layer_1" xmlns="http://www.w3.org/2000/svg" xmlns:xlink="http://www.w3.org/1999/xlink" x="0px" y="0px"
	 width="120px" height="120px" viewBox="0 0 120 120" enable-background="new 0 0 120 120" xml:space="preserve">
<g>
	<path fill="#C5B690" d="M60.01,43.492c-4.965,0-9.617,2.2-12.759,6.032C44.826,52.46,43.49,56.18,43.49,60
		c0,9.104,7.411,16.511,16.52,16.511c9.1,0,16.502-7.405,16.502-16.508C76.512,50.898,69.109,43.492,60.01,43.492z M60.01,74.511
		c-8.006,0-14.52-6.509-14.52-14.511c0-3.356,1.173-6.624,3.305-9.205c2.763-3.37,6.851-5.303,11.215-5.303
		c7.997,0,14.502,6.509,14.502,14.51C74.512,68.002,68.006,74.511,60.01,74.511z"/>
	<path fill="#C5B690" d="M60,0C26.863,0,0,26.863,0,60c0,33.137,26.863,60,60,60c33.137,0,60-26.863,60-60C120,26.863,93.137,0,60,0
		z M60,118C28.019,118,2,91.98,2,60C2,28.019,28.019,2,60,2c31.98,0,58,26.019,58,58C118,91.98,91.98,118,60,118z"/>
	<path fill="#C5B690" d="M100.714,59.457C100.02,58.381,83.402,33.126,60,33.126c-23.4,0-40.017,25.255-40.712,26.331L18.936,60
		l0.352,0.543C19.983,61.619,36.6,86.874,60,86.874c23.402,0,40.02-25.255,40.714-26.331L101.066,60L100.714,59.457z M60,84.874
		c-20.463,0-36.096-21.183-38.664-24.874C23.904,56.308,39.537,35.126,60,35.126c20.465,0,36.098,21.182,38.666,24.874
		C96.098,63.691,80.465,84.874,60,84.874z"/>
	<path fill="#C5B690" d="M53.406,60L60,66.594L66.596,60L60,53.406L53.406,60z M60,63.766L56.234,60L60,56.234L63.768,60L60,63.766z
		"/>
</g>
</svg>
