<?xml version="1.0" encoding="utf-8"?>
<!-- Generator: Adobe Illustrator 16.0.0, SVG Export Plug-In . SVG Version: 6.00 Build 0)  -->
<!DOCTYPE svg PUBLIC "-//W3C//DTD SVG 1.1//EN" "http://www.w3.org/Graphics/SVG/1.1/DTD/svg11.dtd">
<svg version="1.1" id="Layer_1" xmlns="http://www.w3.org/2000/svg" xmlns:xlink="http://www.w3.org/1999/xlink" x="0px" y="0px"
	 width="331px" height="169px" viewBox="0 0 331 169" enable-background="new 0 0 331 169" xml:space="preserve">
<path fill="#A18F66" d="M221.036,134.916h-2V122.39c0-29.979-24.39-54.37-54.37-54.37c-29.979,0-54.369,24.391-54.369,54.37v12.526
	h-2V122.39c0-31.083,25.287-56.37,56.369-56.37c31.083,0,56.37,25.287,56.37,56.37V134.916z"/>
<path fill="#A18F66" d="M110.297,169H93.463v-47.334h16.834V169z M95.463,167h12.834v-43.334H95.463V167z"/>
<path fill="#A18F66" d="M235.87,169h-16.834v-47.334h16.834V169z M221.036,167h12.834v-43.334h-12.834V167z"/>
</svg>
