<?xml version="1.0" encoding="utf-8"?>
<!-- Generator: Adobe Illustrator 16.0.0, SVG Export Plug-In . SVG Version: 6.00 Build 0)  -->
<!DOCTYPE svg PUBLIC "-//W3C//DTD SVG 1.1//EN" "http://www.w3.org/Graphics/SVG/1.1/DTD/svg11.dtd">
<svg version="1.1" id="Layer_1" xmlns="http://www.w3.org/2000/svg" xmlns:xlink="http://www.w3.org/1999/xlink" x="0px" y="0px"
	 width="331px" height="169px" viewBox="0 0 331 169" enable-background="new 0 0 331 169" xml:space="preserve">
<g>
	<path fill="#A18F66" d="M306.134,167l-94.572-94.605L198,85.572v-8.644C198,69.865,192.605,64,185.542,64H52.218
		C45.154,64,39,69.865,39,76.929v52.473c0,6.968,5.799,12.852,12.731,13.004L27.551,167H0v2h123.458h0.875h65.798h1.202H331v-2
		H306.134z M196,129.19c0,5.97-4.84,10.81-10.81,10.81H51.81C45.84,140,41,135.16,41,129.19V76.81C41,70.84,45.84,66,51.81,66
		H185.19c5.97,0,10.81,4.84,10.81,10.81V129.19z M130.627,142h11.087l-5.543,5.543L130.627,142z M123.458,167H30.379l24.37-25h73.05
		l24.371,25h-27.837H123.458z M190.131,167h-35.133l-17.414-17.729l6.958-7.271h41c7.063,0,12.458-5.535,12.458-12.599V88.4
		l13.562-13.178L303.306,167H191.333H190.131z"/>
	<path fill="#A18F66" d="M118.795,133.191l0.191-0.191H175V73H63v60h55.604L118.795,133.191z M155.738,131L173,113.979V131H155.738z
		 M173,75v36.15L152.91,131h-33.479l-28.02-28.149L65,129.406V75H173z M65.946,131l25.328-25.328L116.604,131H65.946z"/>
</g>
<g>
	<polygon fill="#A18F66" points="145.923,40.205 154.312,39.897 139.896,54.313 141.311,55.728 155.724,41.313 155.418,49.699 
		157.418,49.771 157.854,37.768 145.852,38.204 	"/>
	<polygon fill="#A18F66" points="185,22 175.188,22 180.201,16.819 178.9,15.322 174,20.252 174,10 172,10 172,20.253 
		166.873,15.239 165.402,16.82 170.358,22 160,22 160,24 170.359,24 165.346,28.848 166.873,30.178 172,25.081 172,35 174,35 
		174,25.081 179.9,31.095 181.258,29.848 175.187,24 185,24 	"/>
</g>
</svg>
