<?xml version="1.0" encoding="utf-8"?>
<!-- Generator: Adobe Illustrator 16.0.0, SVG Export Plug-In . SVG Version: 6.00 Build 0)  -->
<!DOCTYPE svg PUBLIC "-//W3C//DTD SVG 1.1//EN" "http://www.w3.org/Graphics/SVG/1.1/DTD/svg11.dtd">
<svg version="1.1" id="Layer_1" xmlns="http://www.w3.org/2000/svg" xmlns:xlink="http://www.w3.org/1999/xlink" x="0px" y="0px"
	 width="388.801px" height="213.75px" viewBox="0 0 388.801 213.75" enable-background="new 0 0 388.801 213.75"
	 xml:space="preserve">
<g>
	<g>
		<path fill="#FFFFFF" d="M74.382,2.736l-15.049,46.66L39.027,0L18.722,49.396L3.456,2.736H0l18.146,56.093L38.811,8.641
			l20.738,50.188l18.29-56.093H74.382z M128.666,57.029l-17.785-25.706c9,0.144,15.553-4.752,15.553-14.186
			c0-4.608-1.584-8.929-5.473-11.665c-3.672-2.664-7.993-2.736-12.385-2.736h-6.769v54.293h3.456V31.323h1.728l17.714,25.706
			H128.666z M105.264,28.083V5.977h2.232c3.168,0,6.84-0.144,9.721,1.224c3.888,1.728,5.76,5.76,5.76,9.792
			c0,3.241-1.224,6.481-3.816,8.569c-2.736,2.376-6.121,2.521-9.505,2.521H105.264z M157.68,2.736h-3.457v54.293h3.457V2.736z
			 M195.264,57.029h3.456V5.977h14.041V2.736h-31.539v3.241h14.042V57.029z M244.943,57.029h3.456V5.977h14.041V2.736h-31.538v3.241
			h14.041V57.029L244.943,57.029z M311.905,53.789h-22.467V28.946h21.891v-3.24h-21.891V5.977h22.467V2.736h-25.923v54.293h25.923
			V53.789z M385.346,2.736v47.38l-45.58-48.1v55.013h3.455v-46.66l45.58,48.46V2.736H385.346z M122.308,123.029h3.023V95.888h-3.023
			V123.029z M160.825,116.91L139.66,94.736v28.292h3.023v-20.913l21.166,22.137V95.888h-3.024V116.91z M205.071,123.029V98.696
			h6.623v-2.808h-16.197v2.808h6.551v24.333H205.071z M240.493,123.029h3.023V95.888h-3.023v11.015h-13.895V95.888h-3.023v27.141
			h3.023V109.71h13.895V123.029z M257.775,123.029h14.074v-2.809h-11.052v-10.654h10.728v-2.808h-10.728v-8.063h11.052v-2.808
			h-14.074V123.029z M99.073,187.18l-10.369-5.4c-4.393-2.09-9.793-4.465-9.793-10.153s4.392-10.369,10.225-10.369
			c5.113,0,8.569,2.521,11.017,6.409l2.448-2.018c-2.592-4.681-7.777-7.633-13.249-7.633c-8.137,0-13.897,5.688-13.897,13.754
			c0,4.319,2.017,7.487,5.617,9.721l9.793,5.185c4.68,2.306,10.945,4.896,10.945,11.017c0,7.201-6.265,12.818-13.393,12.818
			c-6.553,0-10.801-4.033-13.105-9.793l-3.024,1.367c2.52,6.984,8.425,11.666,15.985,11.666c8.785,0,16.993-6.77,16.993-15.77
			C105.266,193.083,103.178,189.771,99.073,187.18z M126.07,161.977h14.041v51.053h3.456v-51.053h14.042v-3.24H126.07V161.977z
			 M169.919,213.029h3.528l7.272-17.857h23.834l7.271,17.857h3.528l-22.682-56.094L169.919,213.029z M182.016,191.932l10.657-26.212
			l10.585,26.212H182.016z M263.45,173.137c0-4.607-1.586-8.929-5.474-11.664c-3.673-2.664-7.993-2.736-12.386-2.736h-6.77v54.293
			h3.457v-25.706h1.729l17.714,25.706h3.96l-17.785-25.706C256.896,187.466,263.45,182.57,263.45,173.137z M242.279,184.083v-22.106
			h2.231c3.169,0,6.841-0.144,9.722,1.226c3.888,1.729,5.761,5.76,5.761,9.793c0,3.239-1.225,6.479-3.816,8.567
			c-2.735,2.377-6.12,2.521-9.506,2.521L242.279,184.083L242.279,184.083z M315.288,187.18l-10.369-5.4
			c-4.392-2.09-9.793-4.465-9.793-10.153s4.394-10.369,10.227-10.369c5.111,0,8.568,2.521,11.018,6.409l2.447-2.018
			c-2.592-4.681-7.775-7.633-13.249-7.633c-8.137,0-13.897,5.688-13.897,13.754c0,4.319,2.018,7.487,5.617,9.721l9.793,5.185
			c4.68,2.306,10.945,4.896,10.945,11.017c0,7.201-6.266,12.818-13.395,12.818c-6.553,0-10.801-4.033-13.104-9.793l-3.024,1.367
			c2.521,6.984,8.426,11.666,15.985,11.666c8.786,0,16.993-6.77,16.993-15.77C321.481,193.083,319.393,189.771,315.288,187.18z"/>
	</g>
</g>
</svg>
