<?xml version="1.0" encoding="utf-8"?>
<!-- Generator: Adobe Illustrator 16.0.0, SVG Export Plug-In . SVG Version: 6.00 Build 0)  -->
<!DOCTYPE svg PUBLIC "-//W3C//DTD SVG 1.1//EN" "http://www.w3.org/Graphics/SVG/1.1/DTD/svg11.dtd">
<svg version="1.1" id="Layer_1" xmlns="http://www.w3.org/2000/svg" xmlns:xlink="http://www.w3.org/1999/xlink" x="0px" y="0px"
	 width="127.627px" height="61.625px" viewBox="0 0 127.627 61.625" enable-background="new 0 0 127.627 61.625"
	 xml:space="preserve">
<g>
	<path fill="#C5B690" d="M92.147,26.914c-0.281-6.12-1.85-11.385-4.701-15.798c-3.168-4.898-7.016-7.347-11.541-7.347
		c-3.824,0-6.932,1.785-9.314,5.355c-2.389,3.57-3.58,8.214-3.58,13.935c0,1.333,0.052,2.617,0.159,3.855l0,0
		c0.545,6.48,2.521,11.714,5.922,15.702c3.034,3.536,6.429,5.303,10.185,5.303c3.859,0,6.979-1.744,9.354-5.233
		c2.377-3.494,3.567-8.064,3.567-13.717C92.196,28.273,92.181,27.587,92.147,26.914L92.147,26.914z M13.02,26.914L13.02,26.914
		c-0.003,0.034-0.007,0.067-0.007,0.097c0,0.583,0.403,0.876,1.208,0.876l0.708,0.033h7.924c0.874,0,1.312-0.281,1.312-0.842
		c0-0.046-0.005-0.102-0.011-0.164l0,0c-0.019-0.152-0.058-0.355-0.121-0.608l-0.13-0.607l-4.12-13.33l-0.21-0.707
		c-0.21-0.719-0.438-1.088-0.683-1.111c-0.122-0.022-0.261,0.191-0.42,0.641l-5.115,14.575
		C13.159,26.305,13.045,26.687,13.02,26.914L13.02,26.914z M36.624,26.914L36.624,26.914V11.041c0-2.426-0.202-4.117-0.604-5.08
		c-0.404-0.964-1.176-1.605-2.314-1.922L32.416,3.7c-0.454-0.132-0.684-0.363-0.684-0.692c0-0.46,0.238-0.692,0.711-0.692
		c0.265,0,0.58,0.038,0.949,0.117c0.895,0.154,2.302,0.229,4.217,0.229l0.976-0.043l1.976-0.086c0.527,0,0.983-0.015,1.369-0.045
		c0.701-0.114,1.124-0.172,1.265-0.172c0.423-0.022,0.633,0.181,0.633,0.612c0,0.299-0.212,0.557-0.635,0.772
		c-1.11,0.611-1.809,1.309-2.1,2.091c-0.293,0.783-0.436,2.331-0.436,4.642v13.263c0,0.476,0.078,0.713,0.235,0.713l0.419-0.371
		l0.394-0.407l11.258-13.025c1.734-1.986,2.598-3.575,2.598-4.771c0-1.037-0.628-1.702-1.889-1.995
		c-0.794-0.153-1.191-0.434-1.191-0.844c0-0.453,0.272-0.68,0.814-0.68c0.159,0,0.396,0.021,0.711,0.063
		c0.735,0.081,1.561,0.123,2.47,0.123l2.42,0.093l1.971-0.035c1.105,0,1.832-0.034,2.185-0.103c0.402-0.092,0.675-0.138,0.815-0.138
		c0.474,0,0.728,0.222,0.761,0.663c0.02,0.354-0.402,0.663-1.26,0.929c-1.575,0.521-4.597,3.369-9.06,8.542l-8.965,10.476
		c-0.385,0.453-0.585,0.815-0.604,1.084c-0.018,0.338,0.192,0.813,0.628,1.423l1.1,1.48l12.568,16.938
		c1.452,1.965,3.033,3.174,4.747,3.625l0.896,0.233c0.598-0.87,1.256-1.491,1.965-1.869c-4.998-4.979-7.584-11.286-7.763-18.929l0,0
		l0,0c-0.006-0.282-0.009-0.563-0.009-0.848c0-6.399,1.424-11.841,4.275-16.327C66.538,4.42,71.312,1.76,77.466,1.76
		c5.458,0,9.901,2.22,13.34,6.657c3.437,4.438,5.154,10.194,5.154,17.27c0,0.415-0.01,0.822-0.021,1.228l0,0
		c-0.133,4.076-0.92,7.821-2.367,11.246c-1.592,3.761-3.771,6.653-6.529,8.685c-0.871,0.623-1.814,1.164-2.835,1.625v0.004l0,0
		c-1.047,0.477-2.174,0.869-3.378,1.178c1.764,1.162,2.996,2.017,3.693,2.562l2.439,2.083l0.398,0.335l0,0l1.593,1.341
		c1.538,1.274,2.784,1.913,3.749,1.913c1.467,0,2.74-0.372,3.824-1.125c0.315-0.223,0.562-0.343,0.736-0.36
		c0.295-0.024,0.453,0.142,0.473,0.492c0.033,0.816-0.789,1.67-2.477,2.562c-1.684,0.891-3.305,1.34-4.859,1.34
		c-2.092,0-4.562-1.072-7.412-3.215c-1.889-1.424-3.204-2.403-3.942-2.947l0,0c-0.258-0.188-0.442-0.322-0.562-0.4l-4.397-3.014
		c-2.62-1.781-4.542-2.673-5.763-2.673c-1.065,0-2.043,0.556-2.934,1.664c-0.89,1.106-1.432,2.453-1.623,4.037
		c-0.02,0.142-0.041,0.271-0.066,0.39V54.63l0,0c-0.12,0.558-0.313,0.833-0.579,0.833c-0.406,0-0.624-0.277-0.645-0.829V54.63
		c-0.006-0.075-0.004-0.16,0.001-0.251c0.069-1.736,0.513-3.454,1.332-5.146l0.074-0.148c-0.396-0.036-1.073-0.057-2.027-0.057
		c-1.045,0-1.803,0.027-2.274,0.07c-0.523,0.047-0.925,0.067-1.203,0.067c-0.526,0-0.988-0.229-1.392-0.688l0,0
		c-0.052-0.059-0.102-0.123-0.152-0.191l-0.446-0.63L42.312,28.969l-0.524-0.743c-0.216-0.249-0.428-0.372-0.644-0.372
		c-0.323,0-0.484,0.26-0.484,0.777V41c0,2.59,0.271,4.303,0.813,5.137c0.54,0.83,1.782,1.453,3.723,1.86
		c0.384,0.086,0.627,0.246,0.731,0.481l0,0l0,0c0.031,0.074,0.049,0.153,0.053,0.244c0.018,0.461-0.193,0.68-0.632,0.656
		c-0.244-0.029-0.72-0.087-1.42-0.172c-0.551-0.083-7.481-0.366-8.165-0.395c-0.932-0.002-2.076,0.014-3.333,0.014
		c-2.428,0-3.948,0.066-4.558,0.206c-0.367,0.092-0.639,0.138-0.813,0.138c-0.444,0-0.672-0.23-0.682-0.691l0,0
		c-0.001-0.013-0.001-0.021-0.001-0.03c0-0.368,0.221-0.612,0.659-0.729l0.818-0.234c0.88-0.227,1.318-0.989,1.318-2.293
		c0-1.194-0.536-3.568-1.608-7.123l-1.32-4.455c-0.367-1.237-0.655-1.952-0.865-2.143c-0.211-0.19-0.806-0.287-1.785-0.287h-9.504
		c-1.293,0-2.099,0.134-2.413,0.403c-0.315,0.271-0.735,1.169-1.259,2.695l-1.737,4.95c-0.784,2.269-1.176,3.955-1.176,5.056
		c0,1.054,0.207,1.819,0.62,2.289c0.413,0.474,1.223,0.879,2.435,1.214c0.475,0.12,0.742,0.352,0.804,0.688v0.004l0,0
		c0.008,0.037,0.011,0.076,0.015,0.115c0.017,0.385-0.229,0.575-0.732,0.575c-0.192,0-0.49-0.011-0.888-0.034l-2.511-0.182
		c-0.836-0.045-1.803-0.071-2.9-0.071c-0.506,0-0.898,0.021-1.177,0.054c-0.887,0.149-1.377,0.224-1.463,0.224
		C1.236,49.163,1,48.952,1,48.525c0-0.02,0.001-0.035,0.001-0.057v0.004c0.014-0.351,0.164-0.578,0.446-0.691l0.969-0.371
		c0.349-0.137,0.82-0.684,1.414-1.639c0.595-0.955,1.084-1.953,1.47-2.989l0.76-2.228l4.771-13.64l0,0l0,0l8.712-24.901
		C19.769,1.338,20.019,1,20.296,1c0.276,0,0.509,0.327,0.698,0.98l7.579,24.933l0,0l3.722,12.245l0.577,1.824
		c0.82,2.727,1.501,4.423,2.043,5.086c0.18,0.226,0.424,0.428,0.729,0.621c0.125-0.213,0.234-0.448,0.329-0.707
		c0.432-1.2,0.648-3.217,0.648-6.051v-13.02 M112.028,26.914c-0.02-0.152-0.059-0.355-0.12-0.608l-0.132-0.607l-4.118-13.33
		l-0.212-0.707c-0.209-0.719-0.438-1.088-0.684-1.111c-0.123-0.022-0.261,0.191-0.419,0.641l-5.116,14.576
		c-0.194,0.539-0.308,0.921-0.336,1.146v0.002l0,0c-0.004,0.035-0.007,0.067-0.007,0.097c0,0.582,0.404,0.875,1.21,0.875
		l0.705,0.033h7.926c0.875,0,1.312-0.281,1.312-0.842C112.04,27.033,112.034,26.978,112.028,26.914L112.028,26.914z M116.449,26.914
		l3.722,12.245l0.576,1.825c0.82,2.726,1.503,4.422,2.045,5.086c0.54,0.664,1.641,1.189,3.299,1.572
		c0.541,0.131,0.805,0.404,0.785,0.82c0,0.003,0,0.006,0,0.006l0,0l0,0c-0.021,0.369-0.266,0.555-0.732,0.555
		c-0.16,0-0.492-0.02-0.996-0.058c-0.91-0.097-2.525-0.147-4.85-0.147c-2.428,0-3.947,0.067-4.559,0.205
		c-0.367,0.095-0.639,0.14-0.813,0.14c-0.442,0-0.669-0.229-0.682-0.693v0.005c0-0.014,0-0.025,0-0.035
		c0-0.367,0.221-0.61,0.661-0.729l0.816-0.236c0.879-0.224,1.317-0.99,1.317-2.293c0-1.193-0.536-3.566-1.61-7.121l-1.318-4.455
		c-0.364-1.236-0.653-1.951-0.865-2.144c-0.209-0.191-0.805-0.287-1.782-0.287h-9.499c-1.293,0-2.098,0.135-2.412,0.404
		c-0.312,0.271-0.734,1.17-1.261,2.694l-1.735,4.953c-0.783,2.267-1.178,3.953-1.178,5.051c0,1.055,0.209,1.82,0.62,2.293
		c0.413,0.472,1.226,0.878,2.437,1.213c0.474,0.119,0.739,0.352,0.805,0.689l0,0l0,0c0.007,0.037,0.01,0.078,0.013,0.119
		c0.019,0.381-0.228,0.572-0.731,0.572c-0.19,0-0.488-0.01-0.889-0.034l-2.51-0.173c-0.837-0.045-1.805-0.071-2.9-0.071
		c-0.505,0-0.896,0.021-1.178,0.054c-0.887,0.149-1.374,0.224-1.463,0.224c-0.471,0-0.704-0.212-0.704-0.638c0-0.02,0-0.035,0-0.057
		v0.004c0.017-0.351,0.163-0.578,0.444-0.691l0.971-0.371c0.35-0.137,0.818-0.682,1.416-1.639c0.592-0.955,1.081-1.951,1.469-2.987
		l0.76-2.229l4.771-13.638l0,0l0,0l8.708-24.901C107.644,1.338,107.894,1,108.172,1c0.276,0,0.507,0.327,0.698,0.98L116.449,26.914
		L116.449,26.914z"/>
</g>
</svg>
