<?xml version="1.0" encoding="utf-8"?>
<!-- Generator: Adobe Illustrator 16.0.0, SVG Export Plug-In . SVG Version: 6.00 Build 0)  -->
<!DOCTYPE svg PUBLIC "-//W3C//DTD SVG 1.1//EN" "http://www.w3.org/Graphics/SVG/1.1/DTD/svg11.dtd">
<svg version="1.1" id="Layer_1" xmlns="http://www.w3.org/2000/svg" xmlns:xlink="http://www.w3.org/1999/xlink" x="0px" y="0px"
	 width="120px" height="120px" viewBox="0 0 120 120" enable-background="new 0 0 120 120" xml:space="preserve">
<g>
	<path fill="#C5B690" d="M80.42,30.7c-2.254,0-4.383,0.887-5.965,2.454l-0.003-0.003l-41.95,41.953l-0.256,0.256l-1.193,13.179
		l13.178-1.192l36.36-36.361l-0.002-0.002c0.011-0.009,0.022-0.017,0.034-0.026l-1.295-1.524c-1.171,0.995-2.664,1.543-4.201,1.543
		c-1.734,0-3.363-0.676-4.589-1.902c-1.226-1.226-1.899-2.855-1.899-4.588c0-1.382,0.428-2.701,1.237-3.813l-0.067-0.048
		l0.004-0.003l0.065,0.048c0.072-0.1,0.146-0.198,0.226-0.293l-0.025-0.021l1.886-1.886c-0.021,0.239-0.03,0.479-0.03,0.72
		c-0.002,2.268,0.881,4.399,2.484,6.003s3.734,2.487,6.004,2.487c4.682,0,8.489-3.808,8.489-8.489c0-2.268-0.884-4.4-2.486-6.004
		C84.82,31.583,82.688,30.7,80.42,30.7z M69.121,50.487c1.604,1.604,3.734,2.487,6.003,2.488c0.228,0,0.452-0.012,0.676-0.03
		L43.328,85.418L33.26,86.329l0.912-10.067l32.521-32.525c-0.021,0.25-0.057,0.496-0.057,0.749
		C66.635,46.752,67.518,48.884,69.121,50.487z M80.42,45.679c-1.734,0-3.363-0.676-4.59-1.902s-1.9-2.855-1.898-4.588
		c0-1.5,0.522-2.963,1.473-4.118c1.24-1.506,3.068-2.371,5.019-2.371c3.577,0,6.487,2.912,6.487,6.49
		C86.909,42.769,83.998,45.679,80.42,45.679z"/>
	<path fill="#C5B690" d="M60,0C26.863,0,0,26.862,0,60c0,33.139,26.863,60,60,60c33.137,0,60-26.861,60-60C120,26.862,93.137,0,60,0
		z M60,118C28.019,118,2,91.98,2,60C2,28.019,28.019,2,60,2c31.98,0,58,26.019,58,58C118,91.98,91.98,118,60,118z"/>
</g>
</svg>
