<?xml version="1.0" encoding="utf-8"?>
<!-- Generator: Adobe Illustrator 16.0.0, SVG Export Plug-In . SVG Version: 6.00 Build 0)  -->
<!DOCTYPE svg PUBLIC "-//W3C//DTD SVG 1.1//EN" "http://www.w3.org/Graphics/SVG/1.1/DTD/svg11.dtd">
<svg version="1.1" id="Layer_1" xmlns="http://www.w3.org/2000/svg" xmlns:xlink="http://www.w3.org/1999/xlink" x="0px" y="0px"
	 width="120px" height="120px" viewBox="0 0 120 120" enable-background="new 0 0 120 120" xml:space="preserve">
<g>
	<path fill="#C5B690" d="M60,0C26.863,0,0,26.862,0,60c0,33.139,26.863,60,60,60c33.137,0,60-26.861,60-60C120,26.862,93.137,0,60,0
		z M60,118C28.019,118,2,91.98,2,60C2,28.019,28.019,2,60,2c31.98,0,58,26.019,58,58C118,91.98,91.98,118,60,118z"/>
</g>
<path fill="#C5B690" d="M60.002,91.463L26.008,66.217H41.5V30.538h36.665v35.679h15.827L60.002,91.463z M32.056,68.217
	l27.946,20.754l27.943-20.754h-11.78V32.538H43.5v35.679H32.056z"/>
</svg>
