<?xml version="1.0" encoding="utf-8"?>
<!-- Generator: Adobe Illustrator 16.0.0, SVG Export Plug-In . SVG Version: 6.00 Build 0)  -->
<!DOCTYPE svg PUBLIC "-//W3C//DTD SVG 1.1//EN" "http://www.w3.org/Graphics/SVG/1.1/DTD/svg11.dtd">
<svg version="1.1" id="Layer_1" xmlns="http://www.w3.org/2000/svg" xmlns:xlink="http://www.w3.org/1999/xlink" x="0px" y="0px"
	 width="120px" height="120px" viewBox="0 0 120 120" enable-background="new 0 0 120 120" xml:space="preserve">
<g>
	<path fill="#C5B690" d="M60,0C26.863,0,0,26.862,0,60c0,33.139,26.863,60,60,60c33.137,0,60-26.861,60-60C120,26.862,93.137,0,60,0
		z M60,118C28.019,118,2,91.98,2,60C2,28.019,28.019,2,60,2c31.98,0,58,26.019,58,58C118,91.98,91.98,118,60,118z"/>
	<path fill="#C5B690" d="M51.905,89.354l8.094,8.094l8.097-8.094l-8.097-8.096L51.905,89.354z M59.999,94.618l-5.266-5.267
		l5.266-5.267l5.267,5.267L59.999,94.618z"/>
	<path fill="#C5B690" d="M65.204,22.336h-10v53h10V22.336z M63.204,73.336h-6v-49h6V73.336z"/>
</g>
</svg>
