<?xml version="1.0" encoding="utf-8"?>
<!-- Generator: Adobe Illustrator 16.0.0, SVG Export Plug-In . SVG Version: 6.00 Build 0)  -->
<!DOCTYPE svg PUBLIC "-//W3C//DTD SVG 1.1//EN" "http://www.w3.org/Graphics/SVG/1.1/DTD/svg11.dtd">
<svg version="1.1" id="Layer_1" xmlns="http://www.w3.org/2000/svg" xmlns:xlink="http://www.w3.org/1999/xlink" x="0px" y="0px"
	 width="95.667px" height="95.668px" viewBox="0 0 95.667 95.668" enable-background="new 0 0 95.667 95.668" xml:space="preserve">
<path fill="#C5B690" d="M47.833,0C21.416,0,0,21.416,0,47.834s21.416,47.834,47.833,47.834c26.417,0,47.833-21.416,47.833-47.834
	S74.251,0,47.833,0z M57.039,36.17H51.19c-0.332,0-0.515,0.106-0.825,0.544c-0.312,0.436-0.326,0.851-0.326,1.474v3.982h7v7h-7v18
	h-8v-18h-5v-7h5v-3.855c0-1.326,0.448-2.572,0.906-3.732c0.456-1.164,1.186-2.168,1.976-3.018c0.787-0.852,1.766-1.338,2.822-1.838
	c1.058-0.498,2.243-0.557,3.448-0.557h5.849V36.17z"/>
</svg>
