<?xml version="1.0" encoding="utf-8"?>
<!-- Generator: Adobe Illustrator 16.0.0, SVG Export Plug-In . SVG Version: 6.00 Build 0)  -->
<!DOCTYPE svg PUBLIC "-//W3C//DTD SVG 1.1//EN" "http://www.w3.org/Graphics/SVG/1.1/DTD/svg11.dtd">
<svg version="1.1" id="Layer_1" xmlns="http://www.w3.org/2000/svg" xmlns:xlink="http://www.w3.org/1999/xlink" x="0px" y="0px"
	 width="95.667px" height="95.668px" viewBox="0 0 95.667 95.668" enable-background="new 0 0 95.667 95.668" xml:space="preserve">
<path fill="#C5B690" d="M47.833,2c25.273,0,45.833,20.561,45.833,45.834c0,25.273-20.56,45.834-45.833,45.834S2,73.107,2,47.834
	C2,22.561,22.561,2,47.833,2 M47.833,0C21.416,0,0,21.416,0,47.834s21.416,47.834,47.833,47.834
	c26.417,0,47.833-21.416,47.833-47.834S74.251,0,47.833,0L47.833,0z"/>
<path fill="#C5B690" d="M42.477,41.926v-3.611c0-1.326,0.229-2.572,0.687-3.732c0.456-1.164,1.076-2.168,1.866-3.018
	c0.787-0.852,1.711-1.525,2.767-2.025c1.058-0.498,2.188-0.744,3.393-0.744h5.849v7.154H51.19c-0.332,0-0.653,0.217-0.964,0.654
	c-0.312,0.436-0.467,0.961-0.467,1.584v3.738h7.279v7.275h-7.279v17.672h-7.281V49.201h-5.849v-7.275H42.477z"/>
</svg>
