<?xml version="1.0" encoding="utf-8"?>
<!-- Generator: Adobe Illustrator 16.0.0, SVG Export Plug-In . SVG Version: 6.00 Build 0)  -->
<!DOCTYPE svg PUBLIC "-//W3C//DTD SVG 1.1//EN" "http://www.w3.org/Graphics/SVG/1.1/DTD/svg11.dtd">
<svg version="1.1" id="Layer_1" xmlns="http://www.w3.org/2000/svg" xmlns:xlink="http://www.w3.org/1999/xlink" x="0px" y="0px"
	 width="95.667px" height="95.668px" viewBox="0 0 95.667 95.668" enable-background="new 0 0 95.667 95.668" xml:space="preserve">
<path fill="#C5B690" d="M47.833,2c25.273,0,45.833,20.561,45.833,45.834c0,25.273-20.56,45.834-45.833,45.834S2,73.107,2,47.834
	C2,22.561,22.561,2,47.833,2 M47.833,0C21.416,0,0,21.416,0,47.834s21.416,47.834,47.833,47.834
	c26.417,0,47.833-21.416,47.833-47.834S74.251,0,47.833,0L47.833,0z"/>
<path fill="#C5B690" d="M27.038,33.17v30h41v-30H27.038z M47.815,51.652L30.642,35.17h34.001L47.815,51.652z M40.873,47.698
	L29.038,59.311V36.34L40.873,47.698z M42.601,49.252l5.228,4.934l5.168-4.937L65.02,61.17H30.625L42.601,49.252z M54.142,47.64
	l11.896-11.65v23.32L54.142,47.64z"/>
</svg>
