<?xml version="1.0" encoding="utf-8"?>
<!-- Generator: Adobe Illustrator 16.0.0, SVG Export Plug-In . SVG Version: 6.00 Build 0)  -->
<!DOCTYPE svg PUBLIC "-//W3C//DTD SVG 1.1//EN" "http://www.w3.org/Graphics/SVG/1.1/DTD/svg11.dtd">
<svg version="1.1" id="Layer_1" xmlns="http://www.w3.org/2000/svg" xmlns:xlink="http://www.w3.org/1999/xlink" x="0px" y="0px"
	 width="95.667px" height="95.668px" viewBox="0 0 95.667 95.668" enable-background="new 0 0 95.667 95.668" xml:space="preserve">
<g>
	<polygon fill="#C5B690" points="66.039,59.311 66.039,35.989 54.142,47.64 	"/>
	<polygon fill="#C5B690" points="64.643,35.17 30.642,35.17 47.815,51.652 	"/>
	<polygon fill="#C5B690" points="47.829,54.186 42.601,49.252 30.625,61.17 65.02,61.17 52.998,49.25 	"/>
	<path fill="#C5B690" d="M47.833,0C21.416,0,0,21.416,0,47.834s21.416,47.834,47.833,47.834c26.417,0,47.833-21.416,47.833-47.834
		S74.251,0,47.833,0z M68.039,63.17h-41v-30h41V63.17z"/>
	<polygon fill="#C5B690" points="29.038,36.34 29.038,59.311 40.873,47.698 	"/>
</g>
</svg>
