<?xml version="1.0" encoding="utf-8"?>
<!-- Generator: Adobe Illustrator 16.0.0, SVG Export Plug-In . SVG Version: 6.00 Build 0)  -->
<!DOCTYPE svg PUBLIC "-//W3C//DTD SVG 1.1//EN" "http://www.w3.org/Graphics/SVG/1.1/DTD/svg11.dtd">
<svg version="1.1" id="Layer_1" xmlns="http://www.w3.org/2000/svg" xmlns:xlink="http://www.w3.org/1999/xlink" x="0px" y="0px"
	 width="120px" height="120px" viewBox="0 0 120 120" enable-background="new 0 0 120 120" xml:space="preserve">
<g>
	<path fill="#C5B690" d="M60,0C26.863,0,0,26.863,0,60c0,33.137,26.863,60,60,60c33.137,0,60-26.863,60-60C120,26.863,93.137,0,60,0
		z M60,118C28.019,118,2,91.982,2,60C2,28.018,28.019,2,60,2c31.98,0,58,26.019,58,58C118,91.98,91.98,118,60,118z"/>
	<path fill="#C5B690" d="M46.204,85.648l45.021-25.991L46.204,33.665V85.648z M48.204,37.129l39.021,22.528L48.204,82.184V37.129z"
		/>
</g>
</svg>
