<?xml version="1.0" encoding="utf-8"?>
<!-- Generator: Adobe Illustrator 16.0.0, SVG Export Plug-In . SVG Version: 6.00 Build 0)  -->
<!DOCTYPE svg PUBLIC "-//W3C//DTD SVG 1.1//EN" "http://www.w3.org/Graphics/SVG/1.1/DTD/svg11.dtd">
<svg version="1.1" id="Layer_1" xmlns="http://www.w3.org/2000/svg" xmlns:xlink="http://www.w3.org/1999/xlink" x="0px" y="0px"
	 width="120px" height="120px" viewBox="0 0 120 120" enable-background="new 0 0 120 120" xml:space="preserve">
<g>
	<path fill="#C5B690" d="M60,0C26.863,0,0,26.863,0,60c0,33.137,26.863,60,60,60c33.137,0,60-26.863,60-60C120,26.863,93.137,0,60,0
		z M60,118C28.019,118,2,91.98,2,60C2,28.019,28.019,2,60,2c31.98,0,58,26.019,58,58C118,91.98,91.98,118,60,118z"/>
	<path fill="#C5B690" d="M88.936,52.661c0.604,2.386,0.908,4.855,0.908,7.339c0,16.456-13.388,29.844-29.844,29.844
		S30.156,76.456,30.156,60S43.544,30.156,60,30.156c7.538,0,14.648,2.78,20.165,7.848l-6.272,6.272l14.944,1.353l-1.354-14.945
		l-5.904,5.906C75.684,31.144,68.072,28.156,60,28.156c-17.559,0-31.844,14.285-31.844,31.844c0,17.559,14.285,31.844,31.844,31.844
		c17.559,0,31.844-14.285,31.844-31.844c0-2.649-0.326-5.283-0.97-7.829L88.936,52.661z M86.629,43.421l-8.302-0.751l7.55-7.55
		L86.629,43.421z"/>
</g>
</svg>
