<?xml version="1.0" encoding="utf-8"?>
<!-- Generator: Adobe Illustrator 16.0.0, SVG Export Plug-In . SVG Version: 6.00 Build 0)  -->
<!DOCTYPE svg PUBLIC "-//W3C//DTD SVG 1.1//EN" "http://www.w3.org/Graphics/SVG/1.1/DTD/svg11.dtd">
<svg version="1.1" id="Layer_1" xmlns="http://www.w3.org/2000/svg" xmlns:xlink="http://www.w3.org/1999/xlink" x="0px" y="0px"
	 width="120px" height="120px" viewBox="0 0 120 120" enable-background="new 0 0 120 120" xml:space="preserve">
<g>
	<path fill="#C5B690" d="M60,2c31.98,0,58,26.019,58,58c0,31.98-26.02,58-58,58C28.019,118,2,91.982,2,60C2,28.018,28.019,2,60,2
		 M60,0C26.863,0,0,26.863,0,60c0,33.137,26.863,60,60,60c33.137,0,60-26.863,60-60C120,26.863,93.137,0,60,0L60,0z"/>
	<g id="XMLID_50_">
		<g>
			<g id="XMLID_8_">
				<g>
					<path fill="#C5B690" d="M63.499,82.119l-0.062-14.182C46.19,68.205,33.173,78.266,33.042,78.369L31.218,79.8l0.209-2.309
						c0.022-0.243,2.542-24.198,32.062-30.417V33.821l25.607,24.171L63.499,82.119z M64.135,65.932l1.292,0.008L65.479,77.5
						l20.703-19.51L65.488,38.458v10.256l-0.807,0.159c-15.045,2.955-22.737,10.615-26.541,16.521
						c-2.542,3.945-3.741,7.662-4.289,9.951C38.339,72.377,49.738,65.932,64.135,65.932z"/>
				</g>
			</g>
		</g>
	</g>
</g>
</svg>
