<?xml version="1.0" encoding="utf-8"?>
<!-- Generator: Adobe Illustrator 16.0.0, SVG Export Plug-In . SVG Version: 6.00 Build 0)  -->
<!DOCTYPE svg PUBLIC "-//W3C//DTD SVG 1.1//EN" "http://www.w3.org/Graphics/SVG/1.1/DTD/svg11.dtd">
<svg version="1.1" id="Layer_1" xmlns="http://www.w3.org/2000/svg" xmlns:xlink="http://www.w3.org/1999/xlink" x="0px" y="0px"
	 width="95.667px" height="95.668px" viewBox="0 0 95.667 95.668" enable-background="new 0 0 95.667 95.668" xml:space="preserve">
<path fill="#C5B690" d="M47.833,0C21.416,0,0,21.416,0,47.834s21.416,47.834,47.833,47.834c26.417,0,47.833-21.416,47.833-47.834
	S74.251,0,47.833,0z M62.039,42.431v0.871c0,2.486-0.305,5.008-1.238,7.56c-0.932,2.549-2.221,4.852-4.026,6.908
	c-1.803,2.051-3.983,3.722-6.616,5.008c-2.635,1.287-5.653,1.931-9.098,1.931c-2.113,0-4.126-0.306-6.056-0.901
	c-1.929-0.604-3.739-1.531-5.438-2.608c0.289,0.04,0.585-0.026,0.875-0.026s0.601,0,0.932,0c3.568,0,6.659-0.972,9.272-3.083
	c-1.658-0.046-3.122-0.508-4.386-1.485c-1.265-0.973-2.126-2.187-2.582-3.68c0.497,0.127,0.952,0.197,1.368,0.197
	c0.375,0,0.716-0.016,1.027-0.055c0.312-0.041,0.63-0.099,0.965-0.185c-1.742-0.375-3.167-1.235-4.307-2.581
	c-1.142-1.349-1.693-2.931-1.693-4.76V45.48c0,0.248,1.007,0.456,1.57,0.623c0.559,0.163,1.18,0.248,1.887,0.248
	c-1.079-0.663-1.914-1.533-2.494-2.612c-0.58-1.079-0.873-2.284-0.873-3.61c0-1.328,0.33-2.593,0.994-3.799
	c1.869,2.324,4.127,4.184,6.782,5.57c2.654,1.393,5.538,2.147,8.649,2.273c-0.124-0.5-0.188-1.038-0.188-1.62
	c0-1.033,0.198-2.02,0.592-2.952c0.393-0.937,0.935-1.747,1.618-2.431c0.684-0.684,1.473-1.221,2.365-1.614
	c0.891-0.396,1.855-0.594,2.895-0.594c1.119,0,2.133,0.218,3.047,0.653c0.912,0.436,1.72,1.008,2.427,1.712
	c0.83-0.127,1.657-0.349,2.489-0.684c0.83-0.334,1.598-0.684,2.304-1.059c-0.666,1.742-1.765,3.11-3.3,4.107
	c0.787-0.081,1.535-0.228,2.24-0.436s1.229-0.457,1.893-0.75C64.939,39.96,64.039,41.267,62.039,42.431z"/>
</svg>
