<?xml version="1.0" encoding="utf-8"?>
<!-- Generator: Adobe Illustrator 16.0.0, SVG Export Plug-In . SVG Version: 6.00 Build 0)  -->
<!DOCTYPE svg PUBLIC "-//W3C//DTD SVG 1.1//EN" "http://www.w3.org/Graphics/SVG/1.1/DTD/svg11.dtd">
<svg version="1.1" id="Layer_1" xmlns="http://www.w3.org/2000/svg" xmlns:xlink="http://www.w3.org/1999/xlink" x="0px" y="0px"
	 width="95.667px" height="95.668px" viewBox="0 0 95.667 95.668" enable-background="new 0 0 95.667 95.668" xml:space="preserve">
<path fill="#C5B690" d="M47.833,2c25.273,0,45.833,20.561,45.833,45.834c0,25.273-20.56,45.834-45.833,45.834S2,73.107,2,47.834
	C2,22.561,22.561,2,47.833,2 M47.833,0C21.416,0,0,21.416,0,47.834s21.416,47.834,47.833,47.834
	c26.417,0,47.833-21.416,47.833-47.834S74.251,0,47.833,0L47.833,0z"/>
<path fill="#C5B690" d="M66.096,38.506c-0.995,1.454-2.241,2.761-3.734,3.925v0.871c0,2.486-0.466,5.008-1.399,7.56
	c-0.933,2.549-2.303,4.852-4.107,6.908c-1.803,2.051-4.023,3.722-6.656,5.008c-2.636,1.287-5.675,1.931-9.119,1.931
	c-2.114,0-4.137-0.306-6.066-0.901c-1.929-0.604-3.745-1.443-5.443-2.521c0.289,0.04,0.58,0.061,0.871,0.061c0.29,0,0.601,0,0.932,0
	c3.568,0,6.659-1.059,9.272-3.17c-1.658-0.046-3.122-0.552-4.386-1.529c-1.265-0.972-2.126-2.207-2.582-3.701
	c0.497,0.128,0.952,0.188,1.368,0.188c0.375,0,0.716-0.021,1.027-0.06c0.312-0.042,0.63-0.103,0.965-0.188
	c-1.742-0.375-3.185-1.236-4.325-2.582c-1.142-1.349-1.711-2.933-1.711-4.762V45.48c0.499,0.248,1.025,0.456,1.588,0.623
	c0.559,0.163,1.189,0.248,1.896,0.248c-1.079-0.663-1.909-1.533-2.489-2.612c-0.58-1.079-0.871-2.284-0.871-3.61
	c0-1.328,0.332-2.593,0.995-3.799c1.869,2.324,4.127,4.184,6.783,5.57c2.654,1.393,5.538,2.147,8.649,2.273
	c-0.124-0.5-0.187-1.038-0.187-1.62c0-1.033,0.198-2.02,0.592-2.952c0.393-0.937,0.935-1.747,1.618-2.431
	c0.684-0.684,1.473-1.221,2.365-1.614c0.891-0.396,1.855-0.594,2.895-0.594c1.119,0,2.133,0.218,3.047,0.653
	c0.912,0.436,1.72,1.008,2.427,1.712c0.83-0.127,1.657-0.349,2.489-0.684c0.83-0.334,1.598-0.684,2.304-1.059
	c-0.666,1.742-1.765,3.11-3.299,4.107c0.786-0.081,1.534-0.228,2.239-0.436C64.748,39.048,65.433,38.799,66.096,38.506z"/>
</svg>
